<svg width="36" height="36" viewBox="0 0 36 36" fill="none" xmlns="http://www.w3.org/2000/svg">
<path d="M0 9C0 6.51472 2.01472 4.5 4.5 4.5H31.5C33.9853 4.5 36 6.51472 36 9V27C36 29.4853 33.9853 31.5 31.5 31.5H4.5C2.01472 31.5 0 29.4853 0 27V9ZM4.5 6.75C3.25736 6.75 2.25 7.75736 2.25 9V9.48804L18 18.938L33.75 9.48804V9C33.75 7.75736 32.7426 6.75 31.5 6.75H4.5ZM33.75 12.112L23.1568 18.4679L33.75 24.9867V12.112ZM33.674 27.5819L20.9831 19.7721L18 21.562L15.0169 19.7721L2.32597 27.5819C2.58242 28.5425 3.45859 29.25 4.5 29.25H31.5C32.5414 29.25 33.4176 28.5425 33.674 27.5819ZM2.25 24.9867L12.8432 18.4679L2.25 12.112V24.9867Z" fill="black"/>
</svg>
