<svg width="36" height="36" viewBox="0 0 36 36" fill="none" xmlns="http://www.w3.org/2000/svg">
<path d="M8.22121 2.9891C7.65772 2.26461 6.58676 2.19794 5.93776 2.84694L3.61143 5.17327C2.52361 6.26109 2.12371 7.80222 2.59898 9.15406C4.5076 14.5828 7.63234 19.6801 11.9761 24.0239C16.3199 28.3677 21.4172 31.4924 26.8459 33.401C28.1978 33.8763 29.7389 33.4764 30.8267 32.3886L33.1531 30.0622C33.8021 29.4132 33.7354 28.3423 33.0109 27.7788L27.822 23.743C27.4519 23.4551 26.9699 23.3534 26.5151 23.4671L21.5897 24.6984C20.2518 25.0329 18.8366 24.6409 17.8615 23.6658L12.3342 18.1385C11.3591 17.1634 10.9671 15.7482 11.3016 14.4103L12.5329 9.48494C12.6466 9.03006 12.5449 8.54815 12.2571 8.17804L8.22121 2.9891ZM4.24074 1.14992C5.9105 -0.519837 8.66586 -0.348294 10.1156 1.51568L14.1515 6.70461C14.8921 7.65684 15.1538 8.89669 14.8612 10.067L13.6299 14.9924C13.4999 15.5124 13.6522 16.0625 14.0312 16.4415L19.5585 21.9688C19.9375 22.3478 20.4876 22.5001 21.0076 22.3701L25.933 21.1388C27.1033 20.8462 28.3432 21.1079 29.2954 21.8486L34.4843 25.8844C36.3483 27.3341 36.5198 30.0895 34.8501 31.7593L32.5238 34.0856C30.8594 35.75 28.37 36.4808 26.0499 35.6651C20.2895 33.6399 14.8824 30.3242 10.2791 25.7209C5.67584 21.1176 2.36013 15.7105 0.334886 9.95006C-0.480785 7.63003 0.250043 5.14062 1.91441 3.47625L4.24074 1.14992Z" fill="black"/>
</svg>
