<svg width="36" height="36" viewBox="0 0 36 36" fill="none" xmlns="http://www.w3.org/2000/svg">
<path fill-rule="evenodd" clip-rule="evenodd" d="M6.97501 25.2C7.18747 24.9167 7.5209 24.75 7.87501 24.75H13.5C14.1213 24.75 14.625 25.2537 14.625 25.875C14.625 26.4963 14.1213 27 13.5 27H8.43751L3.37501 33.75H32.625L27.5625 27H22.5C21.8787 27 21.375 26.4963 21.375 25.875C21.375 25.2537 21.8787 24.75 22.5 24.75H28.125C28.4791 24.75 28.8125 24.9167 29.025 25.2L35.775 34.2C36.0307 34.5409 36.0718 34.997 35.8812 35.3781C35.6907 35.7592 35.3011 36 34.875 36H1.12501C0.698888 36 0.309342 35.7592 0.118776 35.3781C-0.0717901 34.997 -0.0306647 34.5409 0.225006 34.2L6.97501 25.2Z" fill="black"/>
<path fill-rule="evenodd" clip-rule="evenodd" d="M18 2.25C14.2721 2.25 11.25 5.27208 11.25 9C11.25 12.7279 14.2721 15.75 18 15.75C21.7279 15.75 24.75 12.7279 24.75 9C24.75 5.27208 21.7279 2.25 18 2.25ZM9.00001 9C9.00001 4.02944 13.0294 0 18 0C22.9706 0 27 4.02944 27 9C27 13.5896 23.5646 17.3768 19.125 17.9304V30.375C19.125 30.9963 18.6213 31.5 18 31.5C17.3787 31.5 16.875 30.9963 16.875 30.375V17.9304C12.4354 17.3768 9.00001 13.5896 9.00001 9Z" fill="black"/>
</svg>
