<svg width="36" height="36" viewBox="0 0 36 36" fill="none" xmlns="http://www.w3.org/2000/svg">
<path d="M18 18C22.9706 18 27 13.9706 27 9C27 4.02944 22.9706 0 18 0C13.0294 0 9 4.02944 9 9C9 13.9706 13.0294 18 18 18ZM24 9C24 12.3137 21.3137 15 18 15C14.6863 15 12 12.3137 12 9C12 5.68629 14.6863 3 18 3C21.3137 3 24 5.68629 24 9Z" fill="black"/>
<path d="M36 33C36 36 33 36 33 36H3C3 36 0 36 0 33C0 30 3 21 18 21C33 21 36 30 36 33ZM32.9999 32.9896C32.9957 32.2492 32.5387 30.0313 30.5036 27.9963C28.5469 26.0395 24.8673 24 18 24C11.1326 24 7.45306 26.0395 5.49629 27.9963C3.46126 30.0313 3.00427 32.2492 3 32.9896H32.9999Z" fill="black"/>
</svg>
